# xmcd
#
# Track frame offsets:
#	150
#	20105
#	35652
#	51972
#	71237
#	87872
#	101215
#	114905
#	130395
#	154325
#	175077
#	191980
#	208665
#	229632
#	249127
#	269155
#	287902
#	309837
#	328787
#
# Disc length: 4605 seconds
#
# Revision: 7
# Processed by: cddbd v1.5.2PL0 Copyright (c) Steve Scherf et al.
# Submitted via: audiograbber 1.83.01
#
DISCID=2111fb13
DTITLE=Manhattans - Kiss And Say Goodbye - The Best Of  
DYEAR=1994
DGENRE=Oldies
TTITLE0=Kiss And Say Goodbye
TTITLE1=Don't Take Your Love
TTITLE2=There's No Me Without You
TTITLE3=Wish That You Were Mine
TTITLE4=The Day The Robin Sang To Me
TTITLE5=That's How Much I Love You
TTITLE6=Hurt
TTITLE7=La La La Wish Upon A Star
TTITLE8=I Kinda Miss You
TTITLE9=It Feels So Good To Be Loved So Bad
TTITLE10=Am I Losing You
TTITLE11=Everybody Has A Dream
TTITLE12=Shining Star
TTITLE13=I'll Never Find Another (Find Another Like You)
TTITLE14=Just One Moment Away
TTITLE15=I Was Made For You
TTITLE16=Just The Lonely Talking Again
TTITLE17=You Send Me
TTITLE18=Goodbye Is The Saddest Word
EXTD=
EXTT0=
EXTT1=
EXTT2=
EXTT3=
EXTT4=
EXTT5=
EXTT6=
EXTT7=
EXTT8=
EXTT9=
EXTT10=
EXTT11=
EXTT12=
EXTT13=
EXTT14=
EXTT15=
EXTT16=
EXTT17=
EXTT18=
PLAYORDER=
